<?xml version="1.0" standalone="no"?>
<!DOCTYPE svg PUBLIC "-//W3C//DTD SVG 20010904//EN"
 "http://www.w3.org/TR/2001/REC-SVG-20010904/DTD/svg10.dtd">
<svg version="1.0" xmlns="http://www.w3.org/2000/svg"
 width="4001.000000pt" height="4001.000000pt" viewBox="0 0 4001.000000 4001.000000"
 preserveAspectRatio="xMidYMid meet">

<g transform="translate(0.000000,4001.000000) scale(0.100000,-0.100000)"
fill="#000000" stroke="none">
<path d="M0 20010 l0 -20000 20000 0 20000 0 0 20000 0 20000 -20000 0 -20000
0 0 -20000z m18362 13523 c183 -310 737 -1249 917 -1555 107 -181 169 -278
180 -278 34 0 2334 -170 2337 -173 3 -2 -309 -357 -1222 -1389 -184 -208 -334
-383 -334 -390 0 -7 126 -524 279 -1148 154 -624 278 -1136 277 -1138 -2 -1
-97 39 -212 89 -115 50 -306 133 -424 184 -118 51 -511 221 -873 379 l-657
285 -1001 -620 c-550 -341 -1003 -619 -1005 -616 -2 2 20 265 50 583 31 318
78 824 106 1124 28 300 53 565 56 590 l6 45 -238 200 c-131 110 -292 246 -358
303 -67 57 -366 311 -666 565 l-545 461 35 8 c19 5 538 120 1153 257 616 137
1120 251 1121 253 2 2 203 492 446 1091 244 598 446 1087 449 1087 3 0 59 -89
123 -197z m6176 -2653 c214 -973 254 -1155 257 -1158 1 -1 323 -135 716 -296
393 -161 732 -301 753 -310 l40 -16 -110 -64 c-626 -365 -1290 -758 -1296
-768 -4 -7 -32 -355 -63 -773 -30 -418 -59 -779 -63 -802 l-7 -42 -135 120
c-74 67 -189 168 -255 227 -66 58 -158 140 -205 182 -47 42 -112 101 -145 130
-33 29 -76 67 -95 84 -19 17 -112 100 -207 184 l-172 152 -787 -190 c-432
-105 -788 -190 -790 -188 -2 2 142 338 321 746 l323 742 -427 692 c-236 381
-427 694 -427 695 1 1 366 -34 811 -78 l810 -79 20 24 c175 214 1032 1212
1036 1208 4 -4 47 -194 97 -422z m-10874 -2011 c-2 -4 0 -10 5 -14 5 -3 8 -14
6 -25 -3 -14 2 -20 14 -20 10 0 21 -8 25 -17 6 -19 27 -55 37 -63 3 -3 17 -30
32 -60 14 -30 35 -61 46 -68 12 -7 21 -17 21 -23 0 -6 13 -28 29 -48 16 -20
30 -39 31 -43 1 -4 4 -17 7 -28 3 -11 12 -20 19 -20 14 0 18 -12 15 -38 -1 -7
4 -15 12 -18 8 -3 20 -23 27 -45 7 -21 18 -39 24 -39 6 0 24 -28 40 -63 16
-34 41 -73 55 -87 30 -29 81 -102 81 -115 0 -4 11 -23 25 -41 14 -18 25 -40
25 -48 0 -9 7 -16 15 -16 8 0 15 -5 15 -11 0 -23 52 -119 65 -119 7 0 19 -16
25 -35 6 -19 16 -35 21 -35 5 0 12 -8 16 -17 14 -43 46 -103 54 -103 5 0 9 -6
9 -14 0 -7 7 -20 17 -27 9 -8 22 -27 30 -44 8 -16 23 -46 33 -65 11 -19 19
-44 20 -55 0 -11 5 -27 11 -35 9 -13 10 -12 5 3 -3 11 -2 16 4 12 6 -3 10 -1
10 5 0 7 7 9 16 6 9 -4 24 -1 33 6 14 11 14 10 1 -4 -8 -9 -22 -18 -30 -20 -8
-2 -20 -9 -26 -17 -7 -9 -16 -11 -25 -5 -20 12 -40 14 -33 3 3 -5 10 -7 15 -4
15 10 10 -5 -7 -22 -11 -12 -18 -13 -27 -4 -6 6 -15 11 -21 11 -5 0 -2 -6 8
-13 17 -12 13 -17 -50 -57 -38 -24 -74 -43 -81 -43 -7 0 -11 -2 -8 -5 2 -3
-42 -35 -98 -72 -127 -82 -461 -320 -559 -398 -40 -32 -116 -91 -168 -132
-453 -352 -1020 -911 -1455 -1435 -825 -994 -1486 -2218 -1861 -3449 -312
-1026 -458 -2042 -441 -3066 7 -413 25 -693 67 -1055 138 -1178 485 -2343
1016 -3405 328 -655 801 -1377 1268 -1935 937 -1117 2035 -1987 3326 -2634
742 -371 1431 -623 2237 -816 2031 -486 4164 -343 6157 412 260 98 667 274
868 373 64 32 119 56 122 53 3 -4 6 -2 6 4 0 6 18 18 40 27 49 19 53 20 44 4
-4 -8 -3 -10 2 -5 5 5 10 13 10 18 1 5 2 12 3 15 0 4 9 0 18 -7 9 -8 14 -9 10
-3 -4 6 2 19 12 28 17 15 19 15 32 -1 12 -15 12 -16 -3 -10 -10 3 -20 2 -22
-2 -3 -5 5 -7 17 -6 31 3 31 3 17 20 -15 18 -16 17 36 43 32 16 44 18 54 9 7
-7 10 -7 7 -2 -3 6 -2 17 4 25 5 10 9 11 9 3 0 -7 11 -1 25 12 13 14 31 25 40
25 8 0 15 4 15 8 0 7 81 51 95 52 3 0 20 9 39 20 30 16 36 17 46 4 15 -16 30
-19 30 -3 0 5 -4 7 -10 4 -5 -3 -10 -4 -10 -1 0 17 22 13 29 -6 8 -18 9 -14 7
20 -3 38 0 45 20 52 13 5 31 7 39 4 8 -4 15 -1 15 6 0 6 -4 8 -10 5 -16 -10
-11 1 7 16 11 10 14 10 9 2 -4 -8 -2 -13 4 -13 6 0 9 -4 6 -8 -3 -5 7 -9 22
-9 62 -1 67 -3 86 -43 10 -21 25 -41 32 -44 8 -3 14 -14 14 -24 0 -10 9 -28
20 -40 11 -12 20 -24 20 -26 0 -3 18 -35 40 -71 22 -36 40 -70 40 -76 0 -5 4
-8 9 -4 5 3 13 0 17 -6 4 -8 3 -9 -4 -5 -7 4 -12 1 -12 -6 0 -14 -40 -54 -40
-40 0 4 -5 0 -10 -9 -7 -11 -22 -15 -54 -14 -31 2 -43 -1 -39 -9 4 -6 -1 -5
-10 3 -13 10 -17 11 -17 1 0 -7 -11 -1 -25 14 -18 19 -25 22 -25 12 0 -9 4
-16 9 -16 6 0 8 -9 6 -19 -2 -11 4 -26 13 -33 15 -12 16 -11 4 4 -13 16 -11
17 22 14 24 -1 36 2 36 10 0 7 9 12 20 11 11 -1 20 -2 20 -3 0 -10 -81 -50
-97 -49 -17 1 -20 -2 -13 -10 8 -9 5 -14 -10 -18 -11 -3 -18 -2 -16 2 3 4 -7
7 -22 8 -15 0 -19 -1 -9 -4 9 -2 17 -8 17 -13 0 -5 -7 -7 -15 -3 -10 3 -15 1
-13 -7 3 -14 -102 -94 -110 -85 -3 3 -17 -5 -30 -17 -14 -13 -22 -18 -19 -12
3 6 0 11 -7 11 -8 0 -12 -6 -9 -13 2 -7 -5 -17 -16 -23 -26 -14 -34 -14 -25 2
5 9 4 9 -6 0 -9 -8 -18 -9 -25 -3 -6 5 -16 5 -25 -2 -12 -8 -12 -9 2 -4 10 3
20 1 23 -5 4 -5 12 -7 18 -3 7 3 3 -2 -7 -10 -11 -9 -26 -16 -33 -16 -7 0 -13
-4 -13 -9 0 -5 -7 -12 -16 -15 -8 -3 -13 -2 -10 2 2 4 0 14 -5 22 -9 13 -10
13 -8 0 3 -29 -1 -40 -15 -40 -7 0 -19 -7 -26 -15 -7 -9 -15 -13 -18 -10 -3 3
-11 0 -19 -6 -16 -14 -66 -43 -113 -67 -19 -9 -37 -19 -40 -22 -31 -31 -628
-322 -910 -443 -1210 -519 -2501 -819 -3850 -893 -237 -13 -399 -15 -725 -11
-231 4 -436 8 -455 11 -19 2 -84 7 -145 11 -382 22 -950 98 -1390 185 -1792
355 -3437 1124 -4893 2288 -527 421 -1118 996 -1541 1501 -477 569 -910 1195
-1259 1822 -543 973 -958 2095 -1193 3224 -290 1393 -320 2854 -88 4220 215
1263 608 2419 1207 3545 686 1292 1628 2458 2757 3414 242 205 598 480 794
613 75 51 141 97 147 102 6 4 20 12 31 15 12 4 24 14 27 22 3 8 10 13 16 9 5
-3 15 3 22 15 7 11 16 20 20 20 4 0 23 11 41 23 33 22 72 32 61 16z m14461
-1682 c-14 -268 -25 -513 -24 -545 l0 -57 455 -350 c249 -192 454 -352 454
-356 0 -4 -37 -16 -82 -28 -46 -11 -225 -59 -398 -106 -173 -47 -386 -104
-473 -126 -106 -28 -161 -47 -167 -59 -5 -9 -93 -252 -196 -541 -102 -288
-189 -527 -193 -531 -3 -4 -148 211 -321 477 l-315 484 -50 5 c-27 3 -264 11
-525 17 -261 6 -500 14 -531 18 l-56 6 344 425 c189 234 353 437 363 451 l19
26 -163 557 c-125 427 -159 557 -147 553 9 -3 104 -38 211 -80 107 -41 345
-131 528 -201 l334 -128 121 84 c67 45 282 192 477 325 l355 243 3 -38 c2 -21
-9 -257 -23 -525z m-13530 255 c17 -12 14 -28 -5 -28 -15 0 -17 3 -7 15 10 12
9 14 -6 8 -11 -4 -16 -3 -12 3 7 12 16 12 30 2z m14399 -2751 l339 -201 362
165 c199 91 364 165 367 165 4 0 -21 -118 -132 -604 l-41 -179 44 -46 c112
-117 498 -543 495 -546 -3 -3 -760 -75 -788 -75 -4 0 -97 -158 -206 -350 -129
-230 -200 -346 -205 -338 -5 7 -77 173 -160 369 l-153 356 -385 78 c-212 43
-389 81 -393 84 -4 5 426 391 573 513 l21 18 -41 362 c-23 200 -44 380 -47
402 -4 21 -2 36 2 33 5 -2 162 -95 348 -206z m1138 -2318 c46 -43 127 -118
181 -167 l97 -88 235 52 c130 28 239 50 244 48 5 -2 -37 -104 -94 -228 l-104
-224 18 -31 c131 -219 233 -397 229 -401 -3 -2 -115 9 -249 26 -234 29 -245
29 -259 12 -64 -76 -314 -352 -319 -352 -4 0 -24 89 -44 198 -21 108 -43 218
-48 243 l-10 46 -225 98 c-123 54 -224 101 -224 104 0 8 15 17 231 138 104 57
191 108 193 111 2 4 15 116 27 250 13 133 26 242 30 242 4 0 44 -35 91 -77z
m-4642 -937 c0 -2 -8 -10 -17 -17 -16 -13 -17 -12 -4 4 13 16 21 21 21 13z
m-7026 -22 c3 -8 2 -12 -4 -9 -6 3 -10 10 -10 16 0 14 7 11 14 -7z m3534 -19
c-3 -3 -9 2 -12 12 -6 14 -5 15 5 6 7 -7 10 -15 7 -18z m3496 10 c-4 -8 -14
-15 -23 -15 -9 0 -22 -5 -28 -11 -8 -8 -13 -7 -18 2 -5 7 -4 10 1 7 5 -3 23 3
39 13 17 9 31 18 32 18 1 1 0 -6 -3 -14z m-9958 -20 c1 -8 -2 -15 -7 -15 -5 0
-9 -5 -9 -11 0 -5 5 -7 10 -4 6 3 10 3 11 -2 0 -4 2 -15 4 -23 27 -110 42
-381 28 -515 l-8 -79 -400 -57 c-220 -32 -416 -60 -436 -63 l-36 -6 10 63 c5
34 10 148 11 252 1 211 -11 277 -62 345 -30 39 -32 47 -20 75 9 19 9 19 -6 1
-9 -10 -13 -23 -10 -28 4 -5 -12 0 -35 11 -22 12 -50 21 -62 21 -31 0 -20 8
20 15 19 3 30 2 27 -4 -4 -5 -2 -13 4 -16 6 -4 9 -1 8 7 -2 11 83 14 467 16
469 3 496 5 478 37 -4 5 -2 6 2 2 5 -4 10 -14 11 -22z m3820 6 c-1 -14 62 -16
638 -19 469 -1 642 1 647 9 4 6 7 -1 7 -17 0 -16 10 -261 21 -544 11 -283 43
-1163 70 -1955 28 -792 53 -1497 56 -1567 l6 -128 -455 0 -456 0 -1 88 c-1 48
-4 287 -8 532 l-6 445 -381 3 -382 2 -176 -535 -177 -535 -464 0 c-256 0 -465
3 -465 7 0 4 33 102 74 217 41 116 290 823 554 1571 844 2392 831 2357 848
2370 7 6 15 24 18 40 5 35 3 32 20 32 7 0 13 -7 12 -16z m3087 -21 c414 -5
452 -6 451 -22 -1 -10 4 -14 12 -11 7 2 10 12 7 20 -4 11 -2 14 5 9 7 -4 10
-22 7 -45 -4 -33 -182 -1179 -204 -1309 l-8 -54 246 5 c268 4 312 11 428 67
163 80 276 251 337 512 35 148 50 284 43 407 -9 169 -54 271 -146 331 -25 16
-51 34 -57 39 -7 5 -14 8 -17 5 -2 -2 -17 1 -33 7 -35 15 -40 16 -83 17 -19 1
-31 5 -28 9 11 11 101 10 116 -1 11 -8 13 -8 8 1 -11 17 1099 19 1121 1 12
-10 14 -10 8 0 -4 6 -2 12 4 12 19 0 32 -50 18 -68 -8 -10 -8 -13 -2 -9 20 12
26 -24 32 -184 12 -376 -97 -836 -266 -1123 -95 -160 -282 -326 -470 -415 -39
-19 -72 -40 -72 -45 1 -6 67 -539 149 -1183 l148 -1173 -509 0 c-442 0 -508 2
-508 15 0 8 -45 501 -100 1095 -55 595 -100 1083 -100 1086 0 2 -81 4 -180 4
l-179 0 -6 -32 c-3 -18 -81 -512 -173 -1098 l-168 -1065 -493 -3 -493 -2 6 32
c3 18 58 362 121 763 184 1161 347 2185 446 2795 50 311 91 571 92 578 0 13
10 16 20 5 4 -3 1 -13 -6 -22 -10 -14 -10 -14 4 -4 9 7 20 9 25 5 5 -4 2 2 -7
13 -9 11 -14 27 -12 35 4 13 3 13 -5 1 -8 -11 -10 -7 -9 13 2 24 3 25 15 9 12
-17 48 -18 465 -23z m2221 31 c3 -5 -1 -14 -8 -20 -12 -10 -13 -8 -9 8 6 23 9
25 17 12z m-11394 -17 c-6 -6 -6 -15 -2 -19 4 -5 1 -5 -6 -1 -7 4 -10 11 -7
16 3 4 -1 10 -7 13 -7 3 -3 4 9 4 15 -1 19 -5 13 -13z m12694 -15 c242 0 450
-5 463 -10 32 -12 29 -22 -14 -51 -95 -63 -174 -179 -209 -308 -26 -94 -26
-305 0 -380 56 -166 135 -267 509 -648 169 -173 337 -351 373 -395 143 -178
272 -400 322 -557 43 -133 53 -195 59 -367 6 -190 -4 -310 -42 -469 -123 -520
-541 -927 -1075 -1045 -279 -61 -650 -41 -899 50 -322 118 -506 355 -577 746
-15 80 -18 147 -17 340 0 132 5 262 10 290 l8 49 433 71 c238 39 434 70 435
68 2 -1 -1 -33 -6 -70 -16 -123 -13 -429 5 -511 23 -101 58 -172 108 -222 57
-57 118 -82 211 -88 223 -13 367 124 414 394 41 237 3 420 -129 618 -83 124
-164 215 -502 556 -377 382 -465 496 -552 709 -109 270 -103 642 15 1000 29
89 92 225 100 217 3 -3 17 1 32 8 14 7 36 12 48 10 17 -3 21 0 16 14 -5 16 -5
16 8 0 13 -16 50 -18 453 -19z m1754 -12 c0 -6 8 -55 16 -107 16 -98 21 -440
7 -490 -7 -24 -11 -25 -436 -87 -236 -34 -431 -61 -432 -59 -2 2 1 43 7 92 23
206 8 465 -32 537 -7 12 -11 26 -10 30 1 5 -2 6 -8 2 -5 -3 -10 -2 -10 3 0 5
-19 22 -42 38 -42 28 -47 30 -68 33 -5 0 -10 5 -10 10 0 10 32 7 50 -4 6 -3
10 -1 10 4 0 6 5 11 11 11 5 0 8 -4 5 -9 -4 -5 10 -5 32 0 51 12 52 11 45 -8
-7 -17 -6 -17 11 0 16 16 50 17 423 17 333 0 404 -2 400 -13 -3 -8 1 -14 8
-14 7 0 10 8 7 19 -2 10 -8 18 -13 18 -5 0 -9 5 -9 12 0 15 36 -18 38 -35z
m-9263 13 c-2 -11 -7 -25 -11 -32 -5 -7 -3 -8 6 -3 10 6 12 4 7 -9 -4 -10 -7
-22 -7 -27 0 -5 -152 -9 -369 -9 l-369 0 -6 -47 c-7 -49 -121 -780 -201 -1293
-25 -157 -132 -842 -240 -1523 -107 -682 -195 -1243 -195 -1248 0 -5 -208 -9
-501 -9 l-501 0 6 28 c3 15 84 524 181 1132 96 608 203 1287 239 1510 196
1227 226 1416 226 1432 0 17 -22 18 -369 18 l-370 0 5 33 c3 17 6 37 6 42 2
14 2408 9 2408 -5 0 -6 8 -10 18 -9 12 0 13 2 3 6 -10 4 -8 9 10 19 13 7 25
13 26 14 1 0 0 -9 -2 -20z m-5198 -20 c12 0 13 -3 4 -13 -8 -10 -7 -14 3 -14
7 0 13 10 12 21 l-1 21 528 1 c368 0 526 -3 524 -10 -2 -6 -10 -11 -18 -11
-13 -1 -23 -6 -94 -51 -16 -10 -33 -17 -37 -16 -5 1 -7 -1 -5 -6 1 -4 -14 -28
-34 -52 -89 -109 -130 -242 -130 -420 0 -116 16 -191 57 -273 67 -132 120
-194 493 -577 205 -211 346 -366 402 -440 164 -217 267 -426 310 -630 32 -146
32 -419 0 -594 -57 -316 -188 -565 -414 -783 -342 -331 -820 -462 -1355 -372
-484 81 -749 366 -812 872 -14 112 -9 546 7 587 10 24 20 27 439 96 236 39
430 70 432 68 2 -1 -1 -45 -7 -98 -15 -135 -14 -370 3 -458 32 -163 95 -263
198 -309 44 -20 69 -24 153 -24 122 0 181 23 248 94 87 93 129 199 147 372 18
178 -12 328 -93 471 -76 132 -172 242 -520 599 -185 190 -364 380 -396 422
-112 146 -186 295 -233 465 -18 66 -21 106 -22 282 -1 220 11 319 61 490 27
95 88 251 101 259 5 3 13 20 17 36 6 21 9 25 12 13 3 -10 11 -18 20 -18z
m1103 16 c0 -3 -4 -8 -10 -11 -5 -3 -10 -1 -10 4 0 6 5 11 10 11 6 0 10 -2 10
-4z m8842 -3 c-51 -2 -132 -2 -180 0 -48 1 -6 3 93 3 99 0 138 -2 87 -3z
m3276 -5 c7 -7 12 -8 12 -2 0 5 13 10 30 10 16 1 27 -2 25 -7 -3 -4 -13 -8
-23 -7 -9 0 -27 -3 -40 -6 -12 -3 -20 -1 -17 4 3 4 -1 11 -7 13 -7 3 -8 6 -2
6 5 1 15 -4 22 -11z m212 2 c0 -5 -5 -10 -11 -10 -5 0 -7 5 -4 10 3 6 8 10 11
10 2 0 4 -4 4 -10z m-9299 -4860 c57 -16 102 -51 127 -100 22 -41 23 -54 19
-155 -3 -60 -8 -118 -12 -127 -6 -16 -22 -18 -117 -18 l-111 0 7 38 c15 88 18
159 7 180 -15 28 -71 38 -113 21 -49 -20 -64 -72 -114 -381 -53 -333 -56 -384
-24 -410 22 -18 73 -24 105 -12 24 10 52 72 64 145 21 121 6 109 131 109 126
0 117 9 95 -107 -20 -103 -64 -192 -121 -242 -64 -56 -127 -75 -251 -75 -94 1
-108 3 -160 30 -48 24 -62 38 -85 83 -41 77 -38 172 12 481 43 265 52 304 83
365 46 91 103 141 193 169 57 17 212 21 265 6z m2324 -17 c49 -26 69 -47 91
-98 18 -43 22 -139 10 -217 l-7 -48 -113 0 -113 0 8 43 c11 59 11 135 -1 157
-14 26 -72 36 -112 19 -49 -20 -66 -74 -113 -373 -57 -359 -58 -383 -25 -416
23 -23 75 -26 115 -8 15 7 36 30 47 51 21 41 48 153 48 200 0 26 -2 27 -51 27
l-52 0 7 46 c3 26 6 55 6 65 0 18 11 19 163 19 l163 0 -45 -285 -45 -285 -78
0 -78 0 0 41 0 42 -44 -41 c-54 -50 -78 -57 -176 -56 -161 2 -232 81 -233 259
0 102 62 510 93 615 40 134 116 218 233 256 65 22 251 13 302 -13z m2328 13
c97 -29 143 -91 153 -207 6 -61 -41 -405 -81 -602 -28 -136 -94 -236 -187
-283 -67 -34 -181 -48 -271 -34 -150 23 -207 93 -207 252 0 85 65 533 91 623
37 131 114 214 232 250 56 18 212 18 270 1z m-6987 -7 c89 -16 149 -53 175
-106 19 -39 21 -56 16 -131 -3 -48 -12 -104 -21 -124 -23 -53 -74 -108 -121
-129 l-39 -18 29 -11 c36 -14 72 -46 90 -80 52 -100 5 -320 -89 -413 -82 -82
-144 -97 -410 -97 l-208 0 6 33 c3 17 42 264 86 547 45 283 83 521 85 528 6
16 315 17 401 1z m1204 -42 c0 -66 27 -799 35 -954 l6 -113 -104 0 -104 0 -7
31 c-3 17 -6 74 -6 126 l0 94 -87 -3 -88 -3 -41 -120 -41 -120 -112 -3 c-62
-1 -110 1 -108 6 3 4 91 251 196 547 105 297 193 546 196 553 3 9 40 12 135
12 l130 0 0 -53z m2070 36 c0 -10 -16 -112 -34 -228 -19 -115 -33 -211 -32
-212 1 -1 62 100 137 225 l134 227 113 3 c61 1 112 1 112 -2 0 -2 -65 -116
-144 -253 l-144 -248 64 -300 c35 -165 64 -304 64 -308 0 -4 -53 -6 -117 -5
l-116 3 -44 230 c-24 127 -46 236 -49 244 -3 9 -11 5 -26 -14 -17 -22 -29 -70
-55 -234 -18 -113 -33 -212 -33 -218 0 -10 -30 -13 -115 -13 -85 0 -115 3
-115 13 0 6 38 254 85 550 47 296 85 543 85 548 0 5 50 9 115 9 103 0 115 -2
115 -17z m2495 6 c83 -15 148 -51 176 -96 33 -52 34 -177 2 -279 -25 -79 -81
-153 -133 -174 -16 -7 -30 -15 -30 -19 0 -10 59 -463 66 -503 l6 -38 -121 0
c-103 0 -121 2 -121 16 0 28 -41 448 -46 472 -3 18 -11 22 -39 22 -18 0 -37
-4 -40 -10 -3 -5 -22 -110 -41 -232 -19 -123 -37 -233 -39 -245 -5 -22 -9 -23
-121 -23 -115 0 -116 0 -111 23 3 12 42 258 87 547 45 289 83 531 85 538 6 16
335 17 420 1z m2165 -6 c0 -10 -30 -206 -66 -436 -43 -272 -64 -430 -60 -453
13 -68 104 -86 153 -29 34 39 46 91 114 527 l64 408 113 0 c100 0 112 -2 112
-17 0 -10 -29 -200 -64 -423 -82 -511 -101 -569 -215 -641 -64 -41 -111 -52
-221 -52 -152 -1 -222 31 -261 118 -32 70 -25 173 42 600 33 215 62 396 65
403 2 9 34 12 114 12 98 0 110 -2 110 -17z m1209 -256 c41 -149 77 -277 80
-284 3 -7 26 116 51 272 l44 285 98 0 c97 0 98 0 93 -22 -3 -13 -41 -252 -85
-533 -44 -280 -83 -522 -86 -537 -6 -28 -7 -28 -84 -28 l-78 0 -74 299 c-40
165 -75 298 -77 295 -2 -2 -25 -135 -50 -296 l-46 -293 -98 -3 c-84 -2 -97 -1
-97 14 0 9 38 258 85 554 47 296 85 541 85 544 0 3 37 6 83 6 l82 0 74 -273z
m1381 249 c50 -19 94 -56 118 -101 28 -51 21 -190 -26 -470 -22 -137 -48 -270
-57 -295 -22 -62 -69 -130 -113 -161 -76 -54 -119 -63 -351 -67 l-214 -4 6 39
c4 21 44 274 89 562 l83 523 210 -4 c164 -4 220 -9 255 -22z m1350 -5972 c0
-8 -19 -13 -24 -6 -3 5 1 9 9 9 8 0 15 -2 15 -3z m-90 -38 c0 -2 -8 -10 -17
-17 -16 -13 -17 -12 -4 4 13 16 21 21 21 13z m-920 -191 c0 -2 -14 -8 -30 -14
-18 -6 -28 -6 -25 -1 4 6 13 10 21 10 8 0 12 4 9 10 -3 6 1 7 9 4 9 -3 16 -7
16 -9z m-136 -77 c-5 -7 -2 -9 8 -6 8 4 15 1 15 -7 0 -7 -6 -11 -13 -8 -7 2
-21 0 -32 -6 -17 -9 -20 -8 -18 6 2 9 11 20 22 24 26 10 26 10 18 -3z m629
-63 c-3 -9 -8 -14 -10 -11 -3 3 -2 9 2 15 9 16 15 13 8 -4z m-738 -17 c4 -3 2
-9 -3 -12 -5 -3 -15 1 -21 8 -10 11 -9 14 3 12 9 -1 18 -5 21 -8z m82 -3 c0
-8 -4 -12 -9 -9 -5 3 -6 10 -3 15 9 13 12 11 12 -6z m-184 -56 c-6 -6 -9 -19
-7 -28 3 -9 -2 -5 -11 9 l-16 25 5 -24 c3 -17 2 -21 -6 -13 -12 12 -3 46 11
37 5 -3 13 0 16 6 4 5 10 8 13 4 3 -3 1 -10 -5 -16z m22 -18 c3 -5 2 -12 -3
-15 -5 -3 -9 1 -9 9 0 17 3 19 12 6z m-165 -65 c0 -2 -9 -6 -20 -9 -11 -3 -18
-1 -14 4 5 9 34 13 34 5z m715 -86 c3 -6 -1 -7 -9 -4 -18 7 -21 14 -7 14 6 0
13 -4 16 -10z m-37 -37 c-16 -19 -29 -5 -16 17 9 13 14 16 20 7 4 -6 2 -17 -4
-24z m-75 -21 c4 9 6 9 6 1 2 -20 -16 -24 -30 -5 -13 15 -12 16 3 4 13 -10 17
-10 21 0z m47 4 c0 -2 -7 -7 -16 -10 -8 -3 -12 -2 -9 4 6 10 25 14 25 6z
m-175 -86 c-3 -4 0 -11 5 -13 6 -3 5 -4 -1 -3 -7 1 -13 10 -15 19 -1 9 2 15 7
11 5 -3 7 -9 4 -14z m-21 -25 c3 -8 2 -14 -2 -14 -20 3 -25 -2 -12 -12 12 -8
12 -10 1 -7 -8 2 -15 12 -17 21 -1 9 2 15 7 11 5 -3 9 0 9 5 0 16 7 13 14 -4z"/>
<path d="M18010 30806 c0 -2 8 -10 18 -17 15 -13 16 -12 3 4 -13 16 -21 21
-21 13z"/>
<path d="M18052 30780 c2 -8 -3 -14 -9 -12 -19 3 -16 -4 18 -40 18 -18 28 -27
24 -19 -6 9 -4 12 4 7 6 -4 9 -12 6 -17 -5 -7 260 -333 368 -453 l28 -31 -5
55 c-3 30 -11 128 -17 218 -7 89 -16 162 -19 162 -4 0 -6 12 -4 28 2 26 2 26
-12 8 -16 -23 -19 -14 -3 15 9 18 8 19 -10 8 -15 -10 -43 -9 -137 4 -79 11
-122 13 -130 6 -8 -7 -16 -5 -26 5 -8 8 -26 16 -39 18 -14 2 -24 10 -24 20 0
9 -4 20 -8 25 -5 4 -7 1 -5 -7z"/>
<path d="M18866 30337 c-197 -77 -355 -142 -350 -144 10 -3 983 -242 1398
-344 l249 -60 29 27 c15 16 26 34 23 42 -2 7 -1 11 4 8 5 -3 14 0 20 8 13 16
4 26 -46 47 -18 8 -33 17 -33 21 0 5 -11 8 -24 8 -13 0 -34 8 -47 18 -13 9
-35 23 -48 30 -13 8 -40 23 -60 34 -20 12 -54 31 -76 43 -22 11 -59 33 -82 48
-24 15 -47 27 -53 27 -5 0 -10 9 -10 20 0 16 -7 20 -31 20 -29 0 -129 56 -129
72 0 5 -7 8 -15 8 -14 0 -53 18 -65 30 -3 3 -27 16 -55 30 -27 13 -63 34 -80
46 -16 12 -56 33 -87 48 -32 15 -58 29 -58 32 0 4 7 3 16 0 9 -3 12 -2 9 5 -4
5 -16 7 -27 3 -14 -4 -18 -2 -14 5 4 6 6 11 4 10 -2 0 -165 -64 -362 -142z
m1338 -432 c11 -8 16 -15 10 -15 -5 0 -18 7 -28 15 -11 8 -16 15 -10 15 5 0
18 -7 28 -15z"/>
<path d="M17545 30376 c-4 -20 -10 -36 -14 -36 -8 0 -36 -147 -33 -173 1 -10
-3 -15 -8 -12 -6 4 -10 -7 -10 -25 0 -21 -4 -29 -12 -24 -7 5 -9 2 -5 -8 6
-16 -8 -88 -24 -123 -8 -18 -31 -111 -46 -187 -3 -15 -9 -25 -14 -22 -5 3 -9
0 -9 -6 0 -7 9 -9 23 -5 27 9 1056 423 1074 434 10 5 -642 164 -894 218 -18 4
-23 -1 -28 -31z"/>
<path d="M18230 29748 c-145 -238 -302 -495 -348 -571 -50 -81 -82 -144 -78
-153 3 -8 2 -13 -3 -10 -4 3 -18 -9 -31 -27 -13 -18 -17 -26 -8 -20 8 7 19 9
23 5 5 -4 5 -2 1 5 -3 6 -3 14 1 16 5 3 9 -14 9 -36 1 -23 9 -109 18 -192 10
-82 20 -176 23 -208 3 -31 9 -60 14 -63 13 -7 11 -84 -1 -84 -14 0 -1 -72 16
-85 12 -10 32 -135 37 -231 1 -36 6 -50 15 -47 6 3 12 9 12 14 0 5 4 8 9 7 4
-2 158 89 342 201 183 112 338 204 344 204 5 0 190 -78 410 -173 792 -342
1027 -441 1033 -436 3 3 0 6 -7 6 -6 0 -10 10 -7 23 3 19 0 23 -17 23 -14 -1
-21 4 -19 13 2 8 -4 28 -12 45 -8 17 -31 69 -52 116 -20 47 -50 110 -65 141
-16 31 -29 66 -29 78 0 12 -4 21 -8 21 -4 0 -30 48 -57 107 -28 59 -64 135
-80 169 l-31 62 24 -9 c18 -7 14 1 -19 33 -24 24 -48 42 -53 40 -5 -2 -4 4 4
12 7 9 18 16 24 16 6 0 4 -5 -4 -10 -12 -7 -10 -9 6 -8 18 2 20 5 11 19 -6 10
-15 15 -20 12 -4 -3 -7 1 -5 8 1 8 -2 15 -7 16 -6 1 -9 -6 -7 -16 1 -10 -5
-24 -15 -32 -16 -12 -17 -12 -7 1 6 8 10 29 9 45 -1 33 -32 88 -45 80 -4 -3
-7 3 -6 13 1 11 -6 16 -17 16 -10 -1 -16 0 -13 3 3 3 1 13 -4 23 -12 23 -1029
1244 -1039 1248 -4 1 -126 -192 -271 -430z m1385 -918 c3 -6 -1 -7 -9 -4 -18
7 -21 14 -7 14 6 0 13 -4 16 -10z m-1768 -202 c-3 -8 -6 -5 -6 6 -1 11 2 17 5
13 3 -3 4 -12 1 -19z"/>
<path d="M20253 29913 c0 -9 4 -10 14 -2 7 6 13 12 13 14 0 1 -6 2 -13 2 -8 0
-14 -6 -14 -14z"/>
<path d="M16792 28313 c-1 -16 -24 -251 -51 -523 -27 -272 -48 -496 -48 -496
1 -1 109 175 239 392 141 233 229 390 217 384 -18 -10 -19 -9 -7 9 6 11 15 18
19 16 3 -3 15 5 25 18 18 22 18 22 -1 4 -19 -17 -20 -16 -38 15 -16 29 -16 20
0 -19 3 -7 0 -13 -6 -13 -6 0 -11 5 -11 11 0 5 -5 7 -10 4 -8 -5 -7 -11 1 -21
18 -22 5 -17 -27 11 -19 16 -24 25 -14 25 19 0 -32 45 -71 62 -15 7 -33 23
-40 35 -7 13 -20 23 -29 23 -22 0 -60 33 -60 53 0 19 -5 23 -51 31 -33 6 -35
5 -37 -21z"/>
<path d="M23683 29367 c8 -17 47 -116 87 -219 41 -103 77 -182 81 -175 8 15
69 273 69 293 0 8 -6 11 -17 7 -10 -4 -14 -2 -10 4 4 6 -16 20 -48 33 -31 12
-67 31 -81 42 -20 16 -27 18 -40 8 -12 -11 -13 -10 -9 2 4 9 -4 19 -20 26
l-25 12 13 -33z"/>
<path d="M23267 29269 c13 -13 1 -30 -27 -42 -10 -4 -11 -6 -2 -6 8 -1 6 -8
-8 -23 -11 -12 -20 -28 -20 -35 0 -7 -3 -12 -7 -12 -25 4 -34 -3 -28 -20 3
-10 0 -25 -8 -32 -7 -8 -28 -40 -46 -71 -18 -32 -37 -58 -42 -58 -5 0 -9 -5
-9 -11 0 -6 -9 -23 -20 -39 -11 -15 -18 -29 -15 -31 3 -3 766 45 795 50 3 1
-20 16 -50 35 -463 282 -549 331 -513 295z"/>
<path d="M24062 28945 c-100 -7 -185 -14 -187 -17 -2 -2 217 -142 488 -310
l492 -307 29 17 c16 9 31 23 34 31 3 8 0 11 -7 7 -17 -11 -9 17 9 31 13 10 12
11 -7 7 -23 -6 -20 -10 -132 116 -92 102 -111 125 -111 139 0 6 -4 11 -10 11
-11 0 -13 2 -130 131 -47 52 -97 106 -111 121 -15 15 -24 30 -21 33 8 8 -131
4 -336 -10z"/>
<path d="M23515 28643 c-324 -277 -405 -351 -372 -339 11 3 16 2 12 -4 -3 -6
-12 -10 -18 -10 -7 0 -18 -10 -26 -22 -13 -21 -13 -22 2 -9 23 18 21 3 -3 -34
-11 -17 -17 -38 -14 -50 5 -19 -14 -140 -62 -390 -9 -49 -24 -95 -32 -102 -39
-32 47 -21 288 36 139 34 259 61 265 61 7 0 95 -73 196 -163 608 -538 636
-561 636 -532 0 8 -4 12 -9 9 -4 -3 -8 -2 -9 3 -1 21 -9 100 -20 218 -7 72
-16 133 -22 136 -11 7 0 68 16 87 5 7 7 15 3 19 -3 3 -6 1 -6 -5 0 -7 -4 -12
-10 -12 -5 0 -9 18 -8 40 1 24 5 37 12 34 6 -3 4 0 -5 8 -24 19 -33 56 -18 74
10 12 9 16 -8 20 -14 4 -20 13 -19 29 1 19 4 21 15 12 12 -10 12 -8 1 13 -7
14 -13 26 -12 28 1 1 2 3 1 5 0 1 -2 9 -4 17 -1 8 -86 224 -188 480 -101 256
-197 497 -212 537 -15 40 -33 74 -39 76 -6 2 -155 -119 -331 -270z"/>
<path d="M22348 28108 c-7 -17 15 -19 29 -3 4 4 3 5 -4 2 -6 -4 -13 -2 -15 5
-3 8 -6 6 -10 -4z"/>
<path d="M22336 28071 c-4 -6 -4 -16 -1 -21 4 -6 1 -9 -5 -8 -7 2 -27 -31 -45
-72 -18 -41 -78 -178 -134 -304 -55 -126 -100 -231 -98 -232 2 -3 286 239 406
346 33 30 61 61 60 70 0 10 -3 9 -8 -5 -8 -19 -8 -19 -20 3 -7 12 -9 27 -5 33
3 6 -3 17 -15 25 -12 8 -21 22 -21 30 0 8 -4 14 -9 14 -15 0 -45 54 -43 78 1
18 -3 23 -16 20 -9 -2 -22 5 -28 15 -7 13 -13 16 -18 8z"/>
<path d="M13621 28852 c-1 -8 -6 -10 -13 -6 -7 4 -10 4 -6 -1 4 -4 1 -13 -8
-19 -13 -10 -13 -12 5 -12 11 0 17 4 15 8 -3 4 -1 8 5 8 5 0 13 -4 16 -10 10
-17 22 -11 28 13 5 20 5 20 -7 5 -12 -17 -14 -16 -24 5 -6 12 -11 16 -11 9z"/>
<path d="M25334 9915 c-12 -8 -24 -12 -26 -9 -9 8 -75 -27 -75 -40 0 -13 48
-14 80 -1 11 5 17 3 17 -6 0 -7 3 -9 6 -6 4 4 1 13 -6 22 -9 11 -9 15 -1 15 7
0 9 5 5 12 -5 7 -2 9 8 6 9 -4 15 0 15 8 0 17 2 17 -23 -1z m-24 -32 c0 -15
-2 -16 -10 -3 -8 13 -14 8 -12 -10 0 -3 -8 -6 -19 -6 -25 0 -24 9 4 22 32 17
37 16 37 -3z"/>
<path d="M25460 9841 c0 -6 5 -11 10 -11 6 0 10 -6 10 -12 0 -7 12 -26 26 -43
26 -29 26 -29 19 -5 -13 46 -65 103 -65 71z"/>
<path d="M25066 9781 c-3 -4 6 -7 19 -7 14 0 22 2 19 5 -8 8 -34 10 -38 2z"/>
<path d="M25588 9743 c5 -21 7 -23 10 -9 2 10 0 22 -6 28 -6 6 -7 0 -4 -19z"/>
<path d="M25540 9731 c0 -7 9 -24 20 -38 15 -20 20 -22 20 -9 0 9 -9 26 -20
38 -12 13 -20 16 -20 9z"/>
<path d="M25763 9672 c1 -17 5 -28 10 -25 4 2 4 10 0 16 -4 7 1 5 11 -3 16
-13 18 -13 15 3 -2 10 -8 17 -13 17 -5 -1 -12 4 -16 10 -5 7 -7 -1 -7 -18z"/>
<path d="M25640 9559 c0 -5 5 -7 10 -4 6 3 10 8 10 11 0 2 -4 4 -10 4 -5 0
-10 -5 -10 -11z"/>
<path d="M25446 9518 c3 -4 11 -5 19 -1 21 7 19 12 -4 10 -11 0 -18 -5 -15 -9z"/>
<path d="M25509 9506 c7 -9 8 -17 3 -20 -6 -3 -12 1 -16 9 -7 20 -23 19 -35
-3 -7 -14 -6 -19 4 -19 7 0 11 6 8 14 -3 7 0 13 7 13 8 0 11 -9 8 -24 l-5 -24
29 21 c16 12 24 23 19 25 -6 2 -9 8 -5 13 3 5 -2 9 -12 9 -13 0 -14 -3 -5 -14z"/>
<path d="M25116 9258 c3 -5 10 -6 15 -3 13 9 11 12 -6 12 -8 0 -12 -4 -9 -9z"/>
<path d="M26954 26571 c8 -12 -149 -153 -159 -143 -4 4 -5 -2 -3 -12 1 -11 -4
-21 -12 -23 -13 -4 -13 -3 0 6 18 13 1 15 -19 2 -10 -6 -10 -10 -1 -16 9 -6 9
-10 -1 -16 -8 -5 -18 -9 -24 -9 -5 0 -3 5 5 10 9 6 10 10 3 10 -20 0 -24 -19
-6 -28 25 -13 523 -115 530 -109 3 3 -66 80 -152 171 -141 149 -178 185 -161
157z"/>
<path d="M27272 26530 c-1 -16 5 -85 13 -152 8 -67 15 -125 15 -128 0 -3 23
36 50 85 34 62 48 99 46 120 -1 17 -7 29 -13 28 -5 -1 -29 16 -52 38 -24 21
-46 39 -50 39 -4 0 -8 -13 -9 -30z m118 -60 c0 -5 -5 -10 -11 -10 -5 0 -7 5
-4 10 3 6 8 10 11 10 2 0 4 -4 4 -10z"/>
<path d="M27140 26149 c-80 -38 -209 -99 -287 -136 -79 -37 -143 -71 -143 -76
0 -4 -4 -5 -10 -2 -5 3 -10 1 -10 -5 0 -6 -5 -8 -12 -4 -6 4 -8 3 -4 -4 3 -6
2 -13 -4 -17 -6 -4 -8 -11 -5 -16 4 -5 1 -9 -4 -9 -6 0 -11 -5 -11 -10 0 -18
-163 -349 -171 -347 -4 1 -8 -2 -8 -7 -2 -13 -7 -12 214 -20 105 -4 193 -10
197 -14 4 -4 99 -147 210 -317 112 -170 208 -310 213 -312 6 -2 11 7 12 19 7
91 28 210 43 245 10 23 15 44 12 48 -10 10 -11 36 -1 29 5 -3 9 2 9 11 0 9 -4
13 -10 10 -7 -4 -7 2 -1 19 6 13 10 33 9 43 0 10 2 34 5 53 5 34 -84 875 -93
883 -3 3 -70 -26 -150 -64z"/>
<path d="M27346 26178 c22 -24 144 -155 271 -293 126 -137 237 -256 245 -263
17 -14 72 -6 63 8 -3 5 1 11 7 13 7 3 4 6 -7 6 -17 1 -17 3 -5 11 8 5 10 10 4
10 -12 0 -53 70 -59 100 -2 11 -13 33 -23 48 -25 35 -53 89 -57 110 -2 10 -19
44 -39 77 -20 33 -39 70 -42 83 -4 12 -10 22 -15 22 -5 0 -9 5 -9 11 0 5 4 8
9 4 5 -3 12 -1 16 4 3 6 -3 8 -15 6 -11 -2 -20 0 -20 5 0 5 -8 9 -17 9 -10 0
-90 16 -178 35 -88 20 -162 36 -165 36 -2 0 14 -19 36 -42z"/>
<path d="M26116 25937 c3 -10 9 -15 12 -12 3 3 0 11 -7 18 -10 9 -11 8 -5 -6z"/>
<path d="M26073 25898 c-42 -44 -302 -362 -299 -366 6 -6 388 185 387 194 -1
5 3 9 9 9 5 0 15 7 22 15 11 12 11 12 -2 3 -10 -8 -21 -9 -30 -3 -8 6 -12 10
-8 10 4 0 1 18 -8 40 -13 33 -14 43 -4 55 11 13 10 14 -5 8 -15 -5 -17 -3 -11
13 6 15 5 17 -5 7 -22 -21 -33 -14 -14 7 18 20 18 21 -1 14 -17 -7 -17 -6 -5
9 23 29 7 19 -26 -15z"/>
<path d="M29104 24152 c4 -7 2 -12 -4 -12 -6 0 -8 -5 -4 -12 5 -8 2 -9 -9 -5
-10 3 -17 2 -17 -4 0 -6 -4 -7 -10 -4 -5 3 -10 2 -10 -3 0 -4 -27 -23 -60 -42
l-60 -34 32 -14 c123 -52 327 -128 321 -118 -31 52 -165 246 -174 252 -8 4 -9
3 -5 -4z"/>
<path d="M29315 24024 c-4 -58 -5 -107 -2 -110 8 -8 82 99 79 114 -2 9 2 11
10 7 7 -3 4 0 -6 9 -10 8 -24 12 -30 9 -6 -4 -4 2 4 13 8 10 11 16 6 12 -11
-9 -39 19 -32 31 3 5 0 11 -8 14 -11 4 -15 -16 -21 -99z"/>
<path d="M29105 23825 c-258 -72 -266 -75 -259 -87 5 -8 1 -9 -12 -4 -10 4
-15 4 -11 0 4 -4 2 -13 -4 -21 -6 -7 -8 -13 -3 -13 5 0 5 -4 -1 -8 -13 -9 -75
-89 -75 -97 0 -3 -11 -18 -24 -33 -14 -15 -25 -31 -25 -36 1 -5 -5 -12 -13
-17 -24 -15 5 -27 127 -53 66 -13 124 -31 128 -38 5 -7 53 -114 107 -238 75
-171 103 -225 117 -226 15 -1 18 6 17 42 0 24 3 44 8 44 4 0 8 7 8 15 0 8 4
15 10 15 5 0 6 7 3 17 -4 11 -3 14 5 9 8 -5 10 -2 6 9 -4 8 -1 22 6 30 6 8 9
19 5 24 -3 6 3 28 14 49 17 33 22 80 35 308 9 148 18 287 20 309 5 36 3 41
-17 42 -12 0 -89 -18 -172 -42z"/>
<path d="M29320 23865 c0 -3 68 -111 152 -240 133 -204 155 -232 170 -224 10
6 24 7 31 3 9 -6 9 -4 0 8 -7 8 -9 19 -5 23 4 5 -1 5 -10 2 -10 -3 -20 -1 -24
5 -4 7 -3 8 4 4 17 -10 16 -4 -23 123 -19 63 -32 118 -30 122 3 4 -2 12 -11
19 -8 7 -13 19 -10 26 9 24 -21 45 -128 89 -114 48 -116 48 -116 40z"/>
<path d="M28340 23729 c-135 -117 -161 -142 -140 -135 8 2 74 21 145 41 72 21
133 39 137 41 4 3 0 17 -8 32 -17 32 -18 58 -4 67 8 5 7 11 0 20 -7 8 -9 19
-5 25 17 27 -19 1 -125 -91z m124 50 c-3 -5 -10 -7 -15 -3 -5 3 -7 10 -3 15 3
5 10 7 15 3 5 -3 7 -10 3 -15z"/>
<path d="M30178 21915 c-25 -13 -49 -21 -52 -18 -3 4 -6 1 -6 -5 0 -6 40 -39
90 -72 l90 -60 -21 52 c-11 29 -28 70 -37 90 l-17 37 -47 -24z"/>
<path d="M30341 21846 c-6 -24 -14 -52 -18 -62 -6 -16 -1 -15 27 7 31 24 49
59 29 59 -5 0 -9 9 -9 20 0 36 -17 21 -29 -24z"/>
<path d="M29692 21777 c-51 -29 -88 -53 -82 -55 19 -7 184 9 173 17 -5 3 -10
17 -10 29 -2 18 2 22 14 18 13 -5 14 -4 4 8 -7 8 -10 20 -6 26 8 13 15 16 -93
-43z"/>
<path d="M30159 21735 c-3 -2 -40 -5 -83 -6 -48 -1 -73 -5 -65 -10 11 -7 10
-9 -3 -9 -15 0 -68 -50 -114 -106 -9 -11 -12 -13 -8 -5 5 9 3 12 -4 7 -7 -4
-12 -9 -12 -12 0 -3 34 -21 75 -40 41 -20 76 -43 79 -52 2 -10 17 -78 32 -152
14 -74 33 -141 40 -148 8 -7 12 -9 9 -6 -2 4 4 19 14 33 50 69 83 150 130 318
28 101 51 185 51 188 0 6 -135 7 -141 0z"/>
<path d="M30320 21727 c0 -17 122 -312 132 -318 17 -11 27 -2 23 19 -2 10 -6
49 -9 87 -12 128 -13 130 -76 174 -53 37 -70 47 -70 38z"/>
<path d="M19330 21374 c0 -3 7 -12 15 -20 16 -17 18 -14 9 10 -6 15 -24 23
-24 10z"/>
<path d="M19885 20779 c-7 -22 -78 -253 -295 -969 -111 -366 -221 -729 -246
-808 -24 -79 -44 -145 -44 -148 0 -2 130 -4 289 -4 l288 0 9 968 c5 532 8 969
7 971 -2 2 -5 -2 -8 -10z"/>
<path d="M23544 21344 c-18 -14 -18 -15 4 -4 12 6 22 13 22 15 0 8 -5 6 -26
-11z"/>
<path d="M23581 21346 c-8 -10 -8 -16 2 -24 10 -9 13 -6 13 13 0 29 0 29 -15
11z"/>
<path d="M26388 21353 c7 -3 16 -2 19 1 4 3 -2 6 -13 5 -11 0 -14 -3 -6 -6z"/>
<path d="M14251 21353 c-2 -20 16 -24 30 -5 13 15 12 16 -3 4 -13 -10 -17 -10
-21 0 -4 9 -6 9 -6 1z"/>
<path d="M21850 16343 c-27 -10 -59 -45 -70 -77 -16 -51 -100 -594 -100 -651
0 -63 21 -85 80 -85 45 0 78 23 96 67 21 50 116 652 109 690 -9 50 -61 76
-115 56z"/>
<path d="M14860 16334 c0 -5 -9 -63 -20 -129 -27 -167 -30 -155 38 -155 75 0
117 25 144 87 11 25 21 68 21 95 1 40 -4 53 -26 75 -22 23 -38 28 -92 31 -36
2 -65 0 -65 -4z"/>
<path d="M14786 15859 c-19 -109 -46 -287 -46 -301 0 -15 9 -18 53 -18 121 1
178 66 185 211 4 69 2 78 -21 104 -22 26 -32 30 -95 33 l-71 4 -5 -33z"/>
<path d="M16016 15988 c-32 -106 -61 -199 -63 -205 -4 -10 12 -13 61 -13 l66
0 0 205 c0 113 -1 205 -3 205 -1 0 -29 -87 -61 -192z"/>
<path d="M20615 16339 c-2 -8 -15 -81 -28 -162 -20 -125 -21 -150 -10 -154 27
-10 127 6 152 25 35 25 68 93 76 155 12 96 -20 133 -123 143 -48 5 -63 4 -67
-7z"/>
<path d="M25319 16334 c0 -5 -28 -186 -63 -401 l-62 -393 49 0 c65 0 112 23
131 65 19 39 106 570 106 643 0 64 -20 82 -99 89 -34 3 -61 2 -62 -3z"/>
</g>
</svg>
